<svg width="221" height="40" viewBox="0 0 221 40" fill="none" xmlns="http://www.w3.org/2000/svg">
<path d="M94.4654 23.2472C94.4654 22.8086 94.4215 22.381 94.3338 21.9644C94.268 21.5258 94.1255 21.1311 93.9062 20.7802C93.6869 20.4293 93.3689 20.1552 92.9523 19.9579C92.5357 19.7386 91.9874 19.6289 91.3076 19.6289C90.6498 19.6289 90.0687 19.7276 89.5643 19.925C89.0599 20.1223 88.6214 20.3855 88.2486 20.7144C87.8758 21.0434 87.5578 21.4271 87.2947 21.8657C87.0535 22.3043 86.8451 22.7648 86.6697 23.2472H94.4654ZM86.1763 26.2076C86.1544 26.3172 86.1434 26.4159 86.1434 26.5036C86.1434 26.5913 86.1434 26.6791 86.1434 26.7668V27.1944C86.1434 28.1812 86.4504 28.9816 87.0644 29.5956C87.6784 30.2096 88.6214 30.5166 89.8932 30.5166C90.3537 30.5166 90.7594 30.4508 91.1103 30.3192C91.4831 30.1657 91.801 29.9793 92.0642 29.7601C92.3493 29.5408 92.5905 29.2886 92.7878 29.0035C93.0071 28.7184 93.2045 28.4443 93.3799 28.1812H98.0507C97.678 29.1461 97.2394 29.9903 96.735 30.714C96.2307 31.4376 95.6276 32.0516 94.9259 32.556C94.2242 33.0384 93.4018 33.4002 92.4589 33.6415C91.5379 33.8827 90.4634 34.0033 89.2354 34.0033C88.0951 34.0033 87.0534 33.8498 86.1105 33.5428C85.1895 33.2358 84.4001 32.7753 83.7422 32.1613C83.0843 31.5253 82.569 30.7469 82.1962 29.8258C81.8454 28.9048 81.6699 27.8303 81.6699 26.6023C81.6699 25.2427 81.8892 23.938 82.3278 22.688C82.7664 21.4161 83.3804 20.2978 84.1698 19.3329C84.9812 18.3461 85.968 17.5676 87.1302 16.9975C88.2924 16.4054 89.5972 16.1094 91.0445 16.1094C92.2287 16.1094 93.3032 16.2629 94.268 16.5699C95.2548 16.8769 96.0881 17.3484 96.7679 17.9843C97.4696 18.5983 98.0069 19.3768 98.3797 20.3197C98.7744 21.2407 98.9718 22.3152 98.9718 23.5432C98.9718 24.3765 98.884 25.2647 98.7086 26.2076H86.1763Z" fill="white"/>
<path d="M79.2253 32.6876C78.9403 33.9594 78.5565 35.0559 78.0741 35.9769C77.5916 36.8979 76.9667 37.6544 76.1992 38.2465C75.4536 38.8386 74.5545 39.2772 73.5019 39.5622C72.4713 39.8473 71.2542 39.9899 69.8508 39.9899C68.9955 39.9899 68.1294 39.8912 67.2522 39.6938C66.397 39.4965 65.6185 39.1785 64.9168 38.7399C64.237 38.3013 63.6778 37.7312 63.2392 37.0295C62.8226 36.3277 62.6143 35.4616 62.6143 34.4309H67.2522C67.2303 34.8695 67.307 35.2423 67.4825 35.5493C67.6579 35.8563 67.8881 36.1085 68.1732 36.3058C68.4802 36.5032 68.8201 36.6457 69.1929 36.7334C69.5657 36.8211 69.9385 36.865 70.3113 36.865C71.0569 36.865 71.6709 36.7115 72.1533 36.4045C72.6577 36.0975 73.0853 35.6808 73.4361 35.1545C73.787 34.6283 74.083 34.0033 74.3242 33.2796C74.5655 32.556 74.8067 31.7885 75.0479 30.9771L74.9821 30.9113C73.776 32.5121 72.2191 33.3125 70.3113 33.3125C69.3025 33.3125 68.3925 33.1481 67.5811 32.8191C66.7698 32.4902 66.079 32.0187 65.5089 31.4047C64.9606 30.7907 64.533 30.0671 64.226 29.2338C63.919 28.3785 63.7655 27.4246 63.7655 26.3721C63.7655 25.1221 63.9519 23.8941 64.3247 22.688C64.7194 21.46 65.2786 20.3636 66.0023 19.3987C66.7478 18.4119 67.6469 17.6225 68.6995 17.0304C69.774 16.4164 70.9911 16.1094 72.3507 16.1094C73.5348 16.1094 74.5764 16.3396 75.4755 16.8001C76.3746 17.2606 77.0653 18.0501 77.5478 19.1684H77.6136L78.1399 16.5699H82.6133L79.2253 32.6876ZM73.2059 19.6289C72.4164 19.6289 71.7257 19.8373 71.1336 20.2539C70.5415 20.6706 70.0481 21.1969 69.6534 21.8328C69.2587 22.4468 68.9517 23.1376 68.7324 23.9051C68.535 24.6506 68.4364 25.3633 68.4364 26.0431C68.4364 26.5475 68.4912 27.0299 68.6008 27.4904C68.7324 27.929 68.9298 28.3237 69.1929 28.6746C69.456 29.0254 69.785 29.2996 70.1797 29.4969C70.5744 29.6943 71.0459 29.793 71.5941 29.793C72.4274 29.793 73.1511 29.5956 73.7651 29.2009C74.401 28.7842 74.9163 28.2689 75.311 27.6549C75.7277 27.019 76.0347 26.3172 76.2321 25.5497C76.4513 24.7822 76.561 24.0366 76.561 23.313C76.561 22.2385 76.2869 21.3613 75.7387 20.6815C75.1904 19.9798 74.3462 19.6289 73.2059 19.6289Z" fill="white"/>
<path d="M54.5108 16.5699H58.9514L58.2606 19.6289L58.3264 19.6947C58.8527 18.5106 59.6421 17.6225 60.6947 17.0304C61.7692 16.4164 62.9314 16.1094 64.1814 16.1094C64.6638 16.1094 65.1463 16.1423 65.6287 16.2081L64.6748 20.7473C64.3459 20.6815 64.0169 20.6157 63.688 20.55C63.3591 20.4842 63.0301 20.4513 62.7012 20.4513C61.8021 20.4513 61.0346 20.6048 60.3987 20.9118C59.7847 21.2188 59.2584 21.6354 58.8198 22.1617C58.4031 22.688 58.0633 23.2911 57.8001 23.9709C57.5589 24.6287 57.3615 25.3195 57.208 26.0431L55.6292 33.5757H50.9912L54.5108 16.5699Z" fill="white"/>
<path d="M36.4122 21.7341C36.5657 20.6596 36.8946 19.7715 37.399 19.0698C37.9033 18.3461 38.5173 17.765 39.241 17.3264C39.9646 16.8878 40.776 16.5808 41.6751 16.4054C42.5742 16.2081 43.5061 16.1094 44.471 16.1094C45.2385 16.1094 46.0389 16.1642 46.8722 16.2738C47.7055 16.3835 48.473 16.6028 49.1747 16.9317C49.8765 17.2387 50.4466 17.6882 50.8852 18.2803C51.3457 18.8505 51.565 19.618 51.543 20.5829C51.543 21.3942 51.4224 22.3481 51.1812 23.4446L49.6681 30.2864C49.5804 30.5934 49.5146 30.9771 49.4708 31.4376C49.4488 31.8762 49.4379 32.2599 49.4379 32.5889C49.4379 32.874 49.4927 33.2029 49.6023 33.5757H44.9315V31.8981C44.2956 32.6218 43.5171 33.159 42.5961 33.5099C41.6751 33.8388 40.7212 34.0033 39.7344 34.0033C38.8134 34.0033 38.002 33.8827 37.3003 33.6415C36.6205 33.4002 36.0503 33.0823 35.5898 32.6876C35.1293 32.2709 34.7894 31.7994 34.5701 31.2731C34.3509 30.7249 34.2412 30.1548 34.2412 29.5627C34.2412 27.918 34.8004 26.6023 35.9188 25.6155C37.0591 24.6287 38.6599 24.0147 40.7212 23.7735C41.8176 23.6419 42.7715 23.5432 43.5829 23.4775C44.3942 23.4117 45.0631 23.313 45.5894 23.1814C46.1376 23.0279 46.5433 22.8196 46.8064 22.5564C47.0696 22.2714 47.2011 21.8547 47.2011 21.3065C47.2011 20.8679 47.1025 20.5171 46.9051 20.2539C46.7077 19.9908 46.4556 19.7825 46.1486 19.6289C45.8635 19.4754 45.5455 19.3768 45.1946 19.3329C44.8657 19.2671 44.5478 19.2342 44.2407 19.2342C43.4075 19.2342 42.6619 19.4426 42.004 19.8592C41.3461 20.2539 40.9405 20.8789 40.787 21.7341H36.4122ZM46.2801 25.4182C45.688 25.769 45.0521 25.9883 44.3723 26.076C43.6925 26.1418 43.0127 26.1966 42.3329 26.2405C41.8944 26.2843 41.4668 26.3611 41.0501 26.4707C40.6335 26.5585 40.2607 26.701 39.9317 26.8983C39.6247 27.0957 39.3726 27.3698 39.1752 27.7207C38.9778 28.0496 38.8792 28.4772 38.8792 29.0035C38.8792 29.6395 39.1313 30.1219 39.6357 30.4508C40.162 30.7578 40.765 30.9113 41.4448 30.9113C42.1685 30.9113 42.7715 30.8017 43.254 30.5824C43.7583 30.3412 44.175 30.0451 44.5039 29.6943C44.8548 29.3215 45.1289 28.9048 45.3262 28.4443C45.5236 27.9838 45.688 27.5233 45.8196 27.0628L46.2801 25.4182Z" fill="white"/>
<path d="M21.1397 10.0898H25.8105L24.0672 18.5434H24.133C24.3084 18.3022 24.5606 18.039 24.8895 17.754C25.2184 17.4689 25.6132 17.2057 26.0737 16.9645C26.5342 16.7233 27.0714 16.526 27.6854 16.3725C28.2994 16.197 28.9902 16.1093 29.7577 16.1093C33.069 16.1093 34.7246 17.6334 34.7246 20.6815C34.7246 20.8569 34.7026 21.0871 34.6588 21.3722C34.6149 21.6354 34.5601 21.9095 34.4943 22.1946C34.4505 22.4796 34.3956 22.7537 34.3299 23.0169C34.286 23.2581 34.2531 23.4555 34.2312 23.609L32.126 33.5756H27.4552L29.5274 23.609C29.5713 23.3458 29.6261 22.995 29.6919 22.5564C29.7796 22.1178 29.8235 21.7779 29.8235 21.5367C29.8235 21.0323 29.5823 20.6157 29.0998 20.2867C28.6393 19.9578 28.135 19.7933 27.5868 19.7933C26.885 19.7933 26.2601 19.9359 25.7118 20.221C25.1855 20.4841 24.725 20.835 24.3303 21.2735C23.9575 21.7121 23.6396 22.2165 23.3764 22.7866C23.1352 23.3568 22.9488 23.9379 22.8172 24.53L20.9094 33.5756H16.2715L21.1397 10.0898Z" fill="white"/>
<path d="M12.5652 22.4578C12.5652 21.449 12.3021 20.7254 11.7758 20.2868C11.2714 19.8482 10.4929 19.6289 9.44035 19.6289C8.5632 19.6289 7.81762 19.8702 7.20361 20.3526C6.58961 20.8131 6.09621 21.4052 5.72342 22.1288C5.35063 22.8525 5.07652 23.6419 4.90109 24.4971C4.74759 25.3304 4.67084 26.1089 4.67084 26.8326C4.67084 27.3369 4.72566 27.8194 4.8353 28.2799C4.94495 28.7184 5.13134 29.1022 5.39449 29.4311C5.65763 29.7601 5.98657 30.0232 6.38128 30.2206C6.79793 30.4179 7.30229 30.5166 7.89437 30.5166C8.42066 30.5166 8.88117 30.4289 9.27589 30.2535C9.69253 30.078 10.0544 29.8478 10.3614 29.5627C10.6903 29.2776 10.9534 28.9487 11.1508 28.5759C11.3701 28.1812 11.5455 27.7755 11.6771 27.3589H16.3479C15.6462 29.486 14.5607 31.1306 13.0915 32.2928C11.6442 33.4331 9.80218 34.0033 7.56544 34.0033C5.1752 34.0033 3.31125 33.4222 1.97359 32.2599C0.657864 31.0758 0 29.2338 0 26.7339C0 25.2866 0.208324 23.927 0.624971 22.6551C1.06355 21.3613 1.68852 20.232 2.49988 19.2671C3.33318 18.2803 4.3419 17.5128 5.52606 16.9646C6.71022 16.3944 8.0698 16.1094 9.60482 16.1094C10.6355 16.1094 11.6113 16.23 12.5323 16.4712C13.4533 16.7124 14.2537 17.0852 14.9335 17.5896C15.6352 18.0939 16.1835 18.7518 16.5782 19.5632C16.9948 20.3745 17.2141 21.3394 17.236 22.4578H12.5652Z" fill="white"/>
<path d="M205.946 16.5801H210.42L209.894 18.9484H209.959C211.472 17.0626 213.457 16.1196 215.913 16.1196C219.224 16.1196 220.88 17.6437 220.88 20.6918C220.88 20.8672 220.858 21.0975 220.814 21.3825C220.77 21.6457 220.715 21.9198 220.65 22.2049C220.606 22.4899 220.551 22.7641 220.485 23.0272C220.441 23.2684 220.408 23.4658 220.386 23.6193L218.281 33.5859H213.61L215.683 23.6193C215.727 23.3561 215.781 23.0053 215.847 22.5667C215.935 22.1281 215.979 21.7882 215.979 21.547C215.979 21.0426 215.738 20.626 215.255 20.2971C214.795 19.9681 214.29 19.8037 213.742 19.8037C213.04 19.8037 212.415 19.9462 211.867 20.2313C211.341 20.4944 210.88 20.8453 210.486 21.2839C210.113 21.7224 209.795 22.2268 209.532 22.797C209.29 23.3671 209.104 23.9482 208.973 24.5403L207.065 33.5859H202.427L205.946 16.5801Z" fill="white"/>
<path d="M200.014 32.6978C199.729 33.9697 199.346 35.0661 198.863 35.9871C198.381 36.9081 197.756 37.6647 196.988 38.2568C196.243 38.8488 195.344 39.2874 194.291 39.5725C193.26 39.8576 192.043 40.0001 190.64 40.0001C189.785 40.0001 188.918 39.9014 188.041 39.7041C187.186 39.5067 186.408 39.1887 185.706 38.7502C185.026 38.3116 184.467 37.7414 184.028 37.0397C183.612 36.338 183.403 35.4718 183.403 34.4412H188.041C188.019 34.8797 188.096 35.2525 188.272 35.5595C188.447 35.8665 188.677 36.1187 188.962 36.3161C189.269 36.5134 189.609 36.656 189.982 36.7437C190.355 36.8314 190.728 36.8753 191.1 36.8753C191.846 36.8753 192.46 36.7218 192.942 36.4147C193.447 36.1077 193.874 35.6911 194.225 35.1648C194.576 34.6385 194.872 34.0135 195.113 33.2899C195.355 32.5662 195.596 31.7987 195.837 30.9874L195.771 30.9216C194.565 32.5224 193.008 33.3228 191.1 33.3228C190.092 33.3228 189.182 33.1583 188.37 32.8294C187.559 32.5005 186.868 32.029 186.298 31.415C185.75 30.801 185.322 30.0773 185.015 29.244C184.708 28.3888 184.555 27.4349 184.555 26.3823C184.555 25.1324 184.741 23.9044 185.114 22.6983C185.508 21.4703 186.068 20.3738 186.791 19.409C187.537 18.4222 188.436 17.6327 189.489 17.0406C190.563 16.4266 191.78 16.1196 193.14 16.1196C194.324 16.1196 195.365 16.3499 196.265 16.8104C197.164 17.2709 197.854 18.0603 198.337 19.1787H198.403L198.929 16.5801H203.402L200.014 32.6978ZM193.995 19.6392C193.206 19.6392 192.515 19.8475 191.923 20.2642C191.331 20.6808 190.837 21.2071 190.442 21.843C190.048 22.4571 189.741 23.1478 189.521 23.9153C189.324 24.6609 189.225 25.3736 189.225 26.0534C189.225 26.5577 189.28 27.0402 189.39 27.5007C189.521 27.9393 189.719 28.334 189.982 28.6848C190.245 29.0357 190.574 29.3098 190.969 29.5072C191.363 29.7045 191.835 29.8032 192.383 29.8032C193.216 29.8032 193.94 29.6058 194.554 29.2111C195.19 28.7945 195.705 28.2792 196.1 27.6651C196.517 27.0292 196.824 26.3275 197.021 25.56C197.24 24.7925 197.35 24.0469 197.35 23.3232C197.35 22.2487 197.076 21.3716 196.528 20.6918C195.979 19.9901 195.135 19.6392 193.995 19.6392Z" fill="white"/>
<path d="M185.252 13.9486H180.548L181.403 10.1001H186.107L185.252 13.9486ZM180.022 16.5801H184.726L181.107 33.5859H176.437L180.022 16.5801Z" fill="white"/>
<path d="M172.636 21.547C172.614 20.8234 172.394 20.2642 171.978 19.8695C171.583 19.4528 170.925 19.2445 170.004 19.2445C169.171 19.2445 168.48 19.3761 167.932 19.6392C167.405 19.8804 167.142 20.308 167.142 20.922C167.142 21.2948 167.296 21.6128 167.603 21.8759C167.932 22.1391 168.491 22.3913 169.28 22.6325L171.616 23.389C172.252 23.5864 172.833 23.8166 173.359 24.0798C173.907 24.3429 174.379 24.6719 174.774 25.0666C175.19 25.4394 175.508 25.8889 175.727 26.4152C175.969 26.9415 176.089 27.5555 176.089 28.2572C176.089 29.3098 175.848 30.2089 175.366 30.9545C174.905 31.6781 174.291 32.2702 173.524 32.7307C172.756 33.1912 171.89 33.5201 170.925 33.7175C169.96 33.9149 168.984 34.0135 167.998 34.0135C167.164 34.0135 166.32 33.9258 165.465 33.7504C164.61 33.575 163.831 33.2899 163.129 32.8952C162.45 32.4785 161.89 31.9413 161.452 31.2834C161.013 30.6036 160.794 29.7593 160.794 28.7506V28.0599H165.103V28.6191C165.103 29.0138 165.202 29.3537 165.399 29.6387C165.596 29.9238 165.849 30.165 166.156 30.3624C166.484 30.5378 166.846 30.6804 167.241 30.79C167.658 30.8777 168.063 30.9216 168.458 30.9216C168.809 30.9216 169.16 30.8887 169.511 30.8229C169.862 30.7571 170.179 30.6475 170.465 30.494C170.75 30.3185 170.98 30.1102 171.155 29.869C171.331 29.6058 171.418 29.2769 171.418 28.8822C171.418 28.2901 171.265 27.8735 170.958 27.6323C170.651 27.391 170.245 27.1827 169.741 27.0073L166.156 25.856C165.563 25.6587 165.037 25.4503 164.577 25.231C164.138 25.0118 163.754 24.7377 163.425 24.4087C163.118 24.0798 162.877 23.6851 162.702 23.2246C162.548 22.7641 162.472 22.1939 162.472 21.5141C162.472 20.5054 162.702 19.6611 163.162 18.9813C163.645 18.3015 164.259 17.7533 165.004 17.3367C165.75 16.8981 166.561 16.5911 167.438 16.4157C168.337 16.2183 169.193 16.1196 170.004 16.1196C170.925 16.1196 171.813 16.1964 172.668 16.3499C173.524 16.5034 174.269 16.7885 174.905 17.2051C175.563 17.5998 176.078 18.148 176.451 18.8498C176.824 19.5515 176.999 20.4506 176.977 21.547H172.636Z" fill="white"/>
<path d="M156.61 23.2575C156.61 22.8189 156.566 22.3913 156.478 21.9746C156.413 21.536 156.27 21.1413 156.051 20.7905C155.831 20.4396 155.513 20.1655 155.097 19.9681C154.68 19.7488 154.132 19.6392 153.452 19.6392C152.794 19.6392 152.213 19.7379 151.709 19.9352C151.204 20.1326 150.766 20.3957 150.393 20.7247C150.02 21.0536 149.702 21.4374 149.439 21.8759C149.198 22.3145 148.99 22.775 148.814 23.2575H156.61ZM148.321 26.2178C148.299 26.3275 148.288 26.4262 148.288 26.5139C148.288 26.6016 148.288 26.6893 148.288 26.777V27.2046C148.288 28.1914 148.595 28.9918 149.209 29.6058C149.823 30.2199 150.766 30.5269 152.038 30.5269C152.498 30.5269 152.904 30.4611 153.255 30.3295C153.628 30.176 153.946 29.9896 154.209 29.7703C154.494 29.551 154.735 29.2988 154.932 29.0138C155.152 28.7287 155.349 28.4546 155.524 28.1914H160.195C159.822 29.1563 159.384 30.0006 158.88 30.7242C158.375 31.4479 157.772 32.0619 157.07 32.5662C156.369 33.0487 155.546 33.4105 154.603 33.6517C153.682 33.8929 152.608 34.0135 151.38 34.0135C150.24 34.0135 149.198 33.86 148.255 33.553C147.334 33.246 146.545 32.7855 145.887 32.1715C145.229 31.5356 144.714 30.7571 144.341 29.8361C143.99 28.9151 143.814 27.8406 143.814 26.6126C143.814 25.253 144.034 23.9482 144.472 22.6983C144.911 21.4264 145.525 20.308 146.314 19.3432C147.126 18.3564 148.112 17.5779 149.275 17.0077C150.437 16.4157 151.742 16.1196 153.189 16.1196C154.373 16.1196 155.448 16.2731 156.413 16.5801C157.399 16.8871 158.233 17.3586 158.912 17.9945C159.614 18.6085 160.151 19.387 160.524 20.33C160.919 21.251 161.116 22.3255 161.116 23.5535C161.116 24.3868 161.029 25.2749 160.853 26.2178H148.321Z" fill="white"/>
<path d="M134.791 19.6391C133.914 19.6391 133.146 19.8694 132.488 20.3299C131.852 20.7904 131.326 21.3715 130.909 22.0732C130.493 22.775 130.186 23.5425 129.988 24.3758C129.791 25.2091 129.692 25.9985 129.692 26.7441C129.692 27.2484 129.758 27.7309 129.89 28.1914C130.043 28.6519 130.252 29.0576 130.515 29.4084C130.8 29.7374 131.151 30.0115 131.567 30.2307C131.984 30.4281 132.466 30.5268 133.015 30.5268C133.892 30.5268 134.648 30.2965 135.284 29.836C135.92 29.3536 136.446 28.7506 136.863 28.0269C137.302 27.3033 137.62 26.5248 137.817 25.6915C138.036 24.8363 138.146 24.0468 138.146 23.3232C138.146 22.2048 137.872 21.3167 137.324 20.6588C136.775 19.979 135.931 19.6391 134.791 19.6391ZM136.666 31.4807L136.6 31.4149C136.074 32.3359 135.35 33.0047 134.429 33.4214C133.53 33.8161 132.554 34.0135 131.501 34.0135C129.44 34.0135 127.839 33.4214 126.699 32.2372C125.581 31.0312 125.021 29.3975 125.021 27.3361C125.021 25.9327 125.208 24.5622 125.581 23.2245C125.953 21.8868 126.524 20.6917 127.291 19.6391C128.059 18.5865 129.023 17.7423 130.186 17.1064C131.348 16.4485 132.718 16.1196 134.297 16.1196C135.284 16.1196 136.227 16.3388 137.126 16.7774C138.047 17.216 138.694 17.9068 139.067 18.8497H139.133L141.008 10.1001H145.678L140.712 33.5859H136.205L136.666 31.4807Z" fill="white"/>
<path fill-rule="evenodd" clip-rule="evenodd" d="M115.006 12.6626L113.682 18.8393H113.617C113.244 17.8963 112.597 17.2056 111.676 16.767C110.777 16.3284 109.834 16.1091 108.847 16.1091C107.268 16.1091 105.898 16.4381 104.736 17.0959C103.573 17.7319 102.608 18.5761 101.841 19.6287C101.073 20.6813 100.503 21.8764 100.13 23.2141C99.7577 24.5517 99.5713 25.9223 99.5713 27.3257C99.5713 29.387 100.13 31.0207 101.249 32.2268C102.389 33.411 103.99 34.003 106.051 34.003C107.104 34.003 108.08 33.8057 108.979 33.411C109.9 32.9943 110.623 32.3255 111.15 31.4045L111.215 31.4703L110.755 33.5754H115.261L118.052 20.3816C118.375 16.0497 116.17 13.0712 115.006 12.6626ZM107.038 20.3195C107.696 19.859 108.463 19.6287 109.341 19.6287C110.481 19.6287 111.325 19.9686 111.873 20.6484C112.422 21.3063 112.696 22.1944 112.696 23.3127C112.696 24.0364 112.586 24.8258 112.367 25.6811C112.169 26.5143 111.851 27.2928 111.413 28.0165C110.996 28.7401 110.47 29.3432 109.834 29.8256C109.198 30.2861 108.441 30.5164 107.564 30.5164C107.016 30.5164 106.534 30.4177 106.117 30.2203C105.7 30.001 105.35 29.7269 105.064 29.398C104.801 29.0471 104.593 28.6414 104.439 28.1809C104.308 27.7204 104.242 27.238 104.242 26.7336C104.242 25.9881 104.341 25.1986 104.538 24.3653C104.736 23.532 105.043 22.7645 105.459 22.0628C105.876 21.3611 106.402 20.78 107.038 20.3195Z" fill="white"/>
<path d="M118.9 17.0608L120.674 9.89236H115.548L121.434 0L119.387 7.53216H124.419L118.9 17.0608Z" fill="#DFFFBF"/>
</svg>
