<svg width="3526" height="1770" viewBox="0 0 3526 1770" fill="none" xmlns="http://www.w3.org/2000/svg">
<path d="M2551.86 628.001C2551.86 616.153 2550.67 604.602 2548.3 593.347C2546.53 581.499 2542.68 570.836 2536.75 561.358C2530.83 551.88 2522.24 544.476 2510.99 539.144C2499.73 533.221 2484.92 530.259 2466.56 530.259C2448.79 530.259 2433.09 532.924 2419.46 538.256C2405.84 543.587 2393.99 550.696 2383.92 559.581C2373.85 568.467 2365.26 578.834 2358.15 590.681C2351.64 602.529 2346.01 614.968 2341.27 628.001H2551.86ZM2327.94 707.971C2327.35 710.933 2327.05 713.599 2327.05 715.968C2327.05 718.338 2327.05 720.707 2327.05 723.077V734.628C2327.05 761.285 2335.35 782.907 2351.93 799.493C2368.52 816.08 2393.99 824.373 2428.35 824.373C2440.79 824.373 2451.75 822.596 2461.23 819.042C2471.3 814.895 2479.89 809.86 2486.99 803.936C2494.69 798.012 2501.21 791.2 2506.54 783.499C2512.47 775.798 2517.8 768.393 2522.54 761.285H2648.71C2638.64 787.349 2626.79 810.156 2613.17 829.704C2599.55 849.253 2583.25 865.839 2564.3 879.464C2545.34 892.496 2523.13 902.27 2497.66 908.786C2472.78 915.302 2443.75 918.561 2410.58 918.561C2379.77 918.561 2351.64 914.414 2326.16 906.121C2301.28 897.827 2279.96 885.388 2262.19 868.801C2244.42 851.622 2230.5 830.593 2220.43 805.713C2210.95 780.833 2206.21 751.807 2206.21 718.634C2206.21 681.907 2212.13 646.66 2223.98 612.895C2235.83 578.537 2252.41 548.326 2273.74 522.262C2295.66 495.605 2322.31 474.576 2353.71 459.174C2385.11 443.18 2420.35 435.183 2459.45 435.183C2491.44 435.183 2520.46 439.329 2546.53 447.622C2573.18 455.916 2595.69 468.652 2614.06 485.831C2633.01 502.417 2647.53 523.446 2657.6 548.919C2668.26 573.798 2673.59 602.825 2673.59 635.998C2673.59 658.508 2671.22 682.499 2666.48 707.971H2327.94Z" fill="white"/>
<path d="M2140.16 883.018C2132.45 917.376 2122.09 946.995 2109.06 971.874C2096.02 996.754 2079.14 1017.19 2058.41 1033.19C2038.27 1049.18 2013.98 1061.03 1985.55 1068.73C1957.7 1076.43 1924.83 1080.28 1886.92 1080.28C1863.81 1080.28 1840.41 1077.61 1816.72 1072.28C1793.62 1066.95 1772.59 1058.36 1753.63 1046.51C1735.27 1034.67 1720.16 1019.26 1708.31 1000.31C1697.06 981.352 1691.43 957.953 1691.43 930.112H1816.72C1816.13 941.959 1818.2 952.03 1822.94 960.323C1827.68 968.616 1833.9 975.429 1841.6 980.76C1849.89 986.091 1859.07 989.942 1869.14 992.311C1879.21 994.681 1889.28 995.866 1899.36 995.866C1919.5 995.866 1936.08 991.719 1949.11 983.426C1962.74 975.132 1974.29 963.877 1983.77 949.66C1993.25 935.443 2001.24 918.561 2007.76 899.012C2014.28 879.464 2020.79 858.731 2027.31 836.813L2025.53 835.036C1992.95 878.279 1950.89 899.901 1899.36 899.901C1872.11 899.901 1847.52 895.458 1825.6 886.572C1803.69 877.687 1785.03 864.951 1769.63 848.364C1754.82 831.778 1743.26 812.229 1734.97 789.719C1726.68 766.616 1722.53 740.848 1722.53 712.414C1722.53 678.649 1727.57 645.476 1737.64 612.895C1748.3 579.722 1763.41 550.103 1782.95 524.039C1803.09 497.382 1827.38 476.056 1855.82 460.062C1884.84 443.476 1917.72 435.183 1954.45 435.183C1986.43 435.183 2014.57 441.403 2038.86 453.842C2063.15 466.282 2081.81 487.608 2094.84 517.819H2096.62L2110.83 447.622H2231.68L2140.16 883.018ZM1977.55 530.259C1956.22 530.259 1937.56 535.886 1921.57 547.141C1905.58 558.397 1892.25 572.614 1881.58 589.792C1870.92 606.379 1862.63 625.039 1856.7 645.772C1851.37 665.913 1848.71 685.165 1848.71 703.528C1848.71 717.153 1850.19 730.185 1853.15 742.625C1856.7 754.473 1862.04 765.135 1869.14 774.613C1876.25 784.091 1885.14 791.496 1895.8 796.828C1906.46 802.159 1919.2 804.825 1934.01 804.825C1956.52 804.825 1976.07 799.493 1992.65 788.83C2009.83 777.575 2023.75 763.655 2034.42 747.068C2045.67 729.889 2053.97 710.933 2059.3 690.2C2065.22 669.467 2068.18 649.326 2068.18 629.778C2068.18 600.751 2060.78 577.056 2045.97 558.693C2031.16 539.737 2008.35 530.259 1977.55 530.259Z" fill="white"/>
<path d="M1472.53 447.622H1592.49L1573.83 530.259L1575.6 532.036C1589.82 500.048 1611.15 476.056 1639.58 460.062C1668.61 443.476 1700 435.183 1733.77 435.183C1746.8 435.183 1759.83 436.071 1772.87 437.848L1747.1 560.47C1738.21 558.693 1729.33 556.916 1720.44 555.139C1711.55 553.361 1702.67 552.473 1693.78 552.473C1669.5 552.473 1648.76 556.619 1631.58 564.913C1615 573.206 1600.78 584.461 1588.93 598.678C1577.68 612.895 1568.5 629.185 1561.39 647.549C1554.87 665.32 1549.54 683.98 1545.39 703.528L1502.74 907.009H1377.46L1472.53 447.622Z" fill="white"/>
<path d="M983.629 587.127C987.775 558.1 996.661 534.109 1010.29 515.153C1023.91 495.605 1040.5 479.907 1060.04 468.059C1079.59 456.212 1101.51 447.919 1125.8 443.18C1150.09 437.848 1175.26 435.183 1201.33 435.183C1222.06 435.183 1243.68 436.664 1266.19 439.625C1288.7 442.587 1309.43 448.511 1328.39 457.397C1347.35 465.69 1362.75 477.834 1374.6 493.828C1387.04 509.229 1392.96 529.963 1392.37 556.027C1392.37 577.945 1389.11 603.713 1382.59 633.332L1341.72 818.153C1339.35 826.446 1337.57 836.813 1336.39 849.253C1335.8 861.1 1335.5 871.467 1335.5 880.352C1335.5 888.053 1336.98 896.939 1339.94 907.009H1213.77V861.693C1196.59 881.241 1175.56 895.754 1150.68 905.232C1125.8 914.118 1100.03 918.561 1073.37 918.561C1048.49 918.561 1026.58 915.302 1007.62 908.786C989.256 902.27 973.854 893.681 961.414 883.018C948.975 871.763 939.793 859.027 933.869 844.81C927.945 830.001 924.983 814.599 924.983 798.605C924.983 754.176 940.089 718.634 970.3 691.977C1001.1 665.32 1044.35 648.734 1100.03 642.218C1129.65 638.663 1155.42 635.998 1177.34 634.221C1199.25 632.443 1217.32 629.778 1231.54 626.224C1246.35 622.077 1257.31 616.449 1264.41 609.341C1271.52 601.64 1275.08 590.385 1275.08 575.575C1275.08 563.728 1272.41 554.25 1267.08 547.141C1261.75 540.033 1254.94 534.405 1246.64 530.259C1238.94 526.112 1230.35 523.446 1220.87 522.262C1211.99 520.485 1203.4 519.596 1195.11 519.596C1172.6 519.596 1152.46 525.224 1134.68 536.479C1116.91 547.141 1105.95 564.024 1101.81 587.127H983.629ZM1250.2 686.646C1234.2 696.124 1217.02 702.048 1198.66 704.417C1180.3 706.194 1161.93 707.675 1143.57 708.86C1131.72 710.045 1120.17 712.118 1108.92 715.08C1097.66 717.449 1087.59 721.3 1078.7 726.631C1070.41 731.962 1063.6 739.367 1058.27 748.845C1052.94 757.731 1050.27 769.282 1050.27 783.499C1050.27 800.678 1057.08 813.71 1070.71 822.596C1084.92 830.889 1101.21 835.036 1119.58 835.036C1139.13 835.036 1155.42 832.074 1168.45 826.15C1182.07 819.634 1193.33 811.637 1202.21 802.159C1211.69 792.089 1219.1 780.833 1224.43 768.393C1229.76 755.954 1234.2 743.514 1237.76 731.074L1250.2 686.646Z" fill="white"/>
<path d="M571.046 272.572H697.222L650.128 500.933H651.905C656.644 494.417 663.456 487.308 672.342 479.607C681.227 471.906 691.89 464.798 704.33 458.282C716.77 451.766 731.283 446.434 747.87 442.288C764.456 437.549 783.116 435.179 803.849 435.179C893.298 435.179 938.022 476.349 938.022 558.689C938.022 563.428 937.43 569.648 936.245 577.349C935.06 584.458 933.579 591.862 931.802 599.563C930.617 607.264 929.136 614.669 927.359 621.777C926.174 628.293 925.286 633.625 924.694 637.771L867.826 907.006H741.65L797.629 637.771C798.814 630.663 800.295 621.185 802.072 609.337C804.441 597.49 805.626 588.308 805.626 581.792C805.626 568.167 799.11 556.912 786.078 548.027C773.638 539.141 760.013 534.698 745.204 534.698C726.248 534.698 709.365 538.549 694.556 546.249C680.339 553.358 667.899 562.836 657.236 574.684C647.166 586.531 638.577 600.156 631.468 615.557C624.952 630.959 619.917 646.657 616.362 662.651L564.826 907.006H439.539L571.046 272.572Z" fill="white"/>
<path d="M339.431 606.675C339.431 579.426 332.322 559.878 318.105 548.03C304.481 536.183 283.451 530.259 255.017 530.259C231.322 530.259 211.182 536.775 194.595 549.807C178.009 562.247 164.68 578.241 154.61 597.789C144.539 617.338 137.135 638.663 132.396 661.766C128.249 684.276 126.176 705.306 126.176 724.854C126.176 738.479 127.657 751.511 130.619 763.951C133.581 775.798 138.616 786.165 145.724 795.05C152.833 803.936 161.718 811.044 172.381 816.376C183.636 821.707 197.261 824.373 213.255 824.373C227.472 824.373 239.912 822.003 250.575 817.264C261.83 812.525 271.604 806.305 279.897 798.605C288.783 790.904 295.891 782.018 301.223 771.948C307.146 761.285 311.885 750.326 315.44 739.071H441.615C422.659 796.531 393.337 840.959 353.648 872.355C314.551 903.159 264.792 918.561 204.369 918.561C139.8 918.561 89.4486 902.863 53.3137 871.467C17.7712 839.478 0 789.719 0 722.188C0 683.091 5.62756 646.364 16.8827 612.007C28.7302 577.056 45.6129 546.549 67.5307 520.485C90.041 493.828 117.29 473.095 149.278 458.285C181.267 442.883 217.994 435.183 259.46 435.183C287.302 435.183 313.662 438.441 338.542 444.957C363.422 451.473 385.044 461.543 403.407 475.168C422.363 488.793 437.173 506.564 447.835 528.482C459.091 550.4 465.014 576.464 465.607 606.675H339.431Z" fill="white"/>
<path d="M3122.55 1137.35H3243.39L3229.18 1201.32H3230.95C3271.83 1150.38 3325.44 1124.91 3391.78 1124.91C3481.23 1124.91 3525.96 1166.08 3525.96 1248.42C3525.96 1253.15 3525.36 1259.37 3524.18 1267.08C3523 1274.18 3521.51 1281.59 3519.74 1289.29C3518.55 1296.99 3517.07 1304.39 3515.29 1311.5C3514.11 1318.02 3513.22 1323.35 3512.63 1327.5L3455.76 1596.73H3329.58L3385.56 1327.5C3386.75 1320.39 3388.23 1310.91 3390.01 1299.06C3392.38 1287.22 3393.56 1278.03 3393.56 1271.52C3393.56 1257.89 3387.05 1246.64 3374.01 1237.75C3361.57 1228.87 3347.95 1224.42 3333.14 1224.42C3314.18 1224.42 3297.3 1228.27 3282.49 1235.98C3268.27 1243.08 3255.83 1252.56 3245.17 1264.41C3235.1 1276.26 3226.51 1289.88 3219.4 1305.28C3212.89 1320.69 3207.85 1336.38 3204.3 1352.38L3152.76 1596.73H3027.47L3122.55 1137.35Z" fill="white"/>
<path d="M2962.32 1572.74C2954.62 1607.1 2944.25 1636.72 2931.22 1661.6C2918.19 1686.48 2901.3 1706.91 2880.57 1722.91C2860.43 1738.9 2836.14 1750.75 2807.71 1758.45C2779.87 1766.15 2746.99 1770 2709.08 1770C2685.97 1770 2662.58 1767.34 2638.88 1762C2615.78 1756.67 2594.75 1748.08 2575.79 1736.24C2557.43 1724.39 2542.32 1708.99 2530.48 1690.03C2519.22 1671.07 2513.59 1647.68 2513.59 1619.83H2638.88C2638.29 1631.68 2640.36 1641.75 2645.1 1650.05C2649.84 1658.34 2656.06 1665.15 2663.76 1670.48C2672.05 1675.81 2681.24 1679.66 2691.31 1682.03C2701.38 1684.4 2711.45 1685.59 2721.52 1685.59C2741.66 1685.59 2758.24 1681.44 2771.28 1673.15C2784.9 1664.86 2796.45 1653.6 2805.93 1639.38C2815.41 1625.17 2823.41 1608.28 2829.92 1588.73C2836.44 1569.19 2842.95 1548.45 2849.47 1526.54L2847.69 1524.76C2815.11 1568 2773.05 1589.62 2721.52 1589.62C2694.27 1589.62 2669.68 1585.18 2647.77 1576.29C2625.85 1567.41 2607.19 1554.67 2591.79 1538.09C2576.98 1521.5 2565.43 1501.95 2557.13 1479.44C2548.84 1456.34 2544.69 1430.57 2544.69 1402.14C2544.69 1368.37 2549.73 1335.2 2559.8 1302.62C2570.46 1269.44 2585.57 1239.83 2605.12 1213.76C2625.26 1187.1 2649.54 1165.78 2677.98 1149.78C2707 1133.2 2739.88 1124.91 2776.61 1124.91C2808.6 1124.91 2836.73 1131.13 2861.02 1143.57C2885.31 1156 2903.97 1177.33 2917 1207.54H2918.78L2933 1137.35H3053.84L2962.32 1572.74ZM2799.71 1219.98C2778.39 1219.98 2759.73 1225.61 2743.73 1236.86C2727.74 1248.12 2714.41 1262.34 2703.75 1279.52C2693.08 1296.1 2684.79 1314.76 2678.87 1335.49C2673.54 1355.64 2670.87 1374.89 2670.87 1393.25C2670.87 1406.88 2672.35 1419.91 2675.31 1432.35C2678.87 1444.2 2684.2 1454.86 2691.31 1464.34C2698.41 1473.81 2707.3 1481.22 2717.96 1486.55C2728.63 1491.88 2741.36 1494.55 2756.17 1494.55C2778.68 1494.55 2798.23 1489.22 2814.82 1478.55C2832 1467.3 2845.92 1453.38 2856.58 1436.79C2867.83 1419.61 2876.13 1400.66 2881.46 1379.92C2887.38 1359.19 2890.34 1339.05 2890.34 1319.5C2890.34 1290.47 2882.94 1266.78 2868.13 1248.42C2853.32 1229.46 2830.51 1219.98 2799.71 1219.98Z" fill="white"/>
<path d="M2563.54 1066.26H2436.47L2459.58 962.296H2586.64L2563.54 1066.26ZM2422.26 1137.34H2549.32L2451.58 1596.73H2325.4L2422.26 1137.34Z" fill="white"/>
<path d="M2222.73 1271.52C2222.13 1251.97 2216.21 1236.86 2204.95 1226.2C2194.29 1214.95 2176.52 1209.32 2151.64 1209.32C2129.13 1209.32 2110.47 1212.87 2095.66 1219.98C2081.44 1226.5 2074.34 1238.05 2074.34 1254.64C2074.34 1264.71 2078.48 1273.3 2086.78 1280.4C2095.66 1287.51 2110.77 1294.32 2132.09 1300.84L2195.18 1321.28C2212.36 1326.61 2228.06 1332.83 2242.27 1339.94C2257.08 1347.05 2269.82 1355.93 2280.48 1366.59C2291.74 1376.66 2300.33 1388.81 2306.25 1403.03C2312.77 1417.24 2316.03 1433.83 2316.03 1452.78C2316.03 1481.22 2309.51 1505.51 2296.48 1525.65C2284.04 1545.2 2267.45 1561.19 2246.72 1573.63C2225.98 1586.07 2202.59 1594.95 2176.52 1600.29C2150.46 1605.62 2124.1 1608.28 2097.44 1608.28C2074.93 1608.28 2052.12 1605.91 2029.02 1601.17C2005.92 1596.44 1984.89 1588.73 1965.93 1578.07C1947.57 1566.82 1932.46 1552.3 1920.62 1534.53C1908.77 1516.17 1902.84 1493.36 1902.84 1466.11V1447.45H2019.25V1462.56C2019.25 1473.22 2021.91 1482.4 2027.24 1490.1C2032.57 1497.81 2039.39 1504.32 2047.68 1509.65C2056.57 1514.39 2066.34 1518.24 2077 1521.2C2088.26 1523.57 2099.22 1524.76 2109.88 1524.76C2119.36 1524.76 2128.83 1523.87 2138.31 1522.09C2147.79 1520.32 2156.38 1517.35 2164.08 1513.21C2171.78 1508.47 2178 1502.84 2182.74 1496.32C2187.48 1489.22 2189.85 1480.33 2189.85 1469.67C2189.85 1453.67 2185.7 1442.42 2177.41 1435.9C2169.12 1429.39 2158.16 1423.76 2144.53 1419.02L2047.68 1387.92C2031.69 1382.59 2017.47 1376.96 2005.03 1371.04C1993.18 1365.11 1982.81 1357.71 1973.93 1348.82C1965.64 1339.94 1959.12 1329.27 1954.38 1316.83C1950.23 1304.39 1948.16 1288.99 1948.16 1270.63C1948.16 1243.38 1954.38 1220.57 1966.82 1202.21C1979.85 1183.85 1996.44 1169.04 2016.58 1157.78C2036.72 1145.93 2058.64 1137.64 2082.33 1132.9C2106.62 1127.57 2129.72 1124.91 2151.64 1124.91C2176.52 1124.91 2200.51 1126.98 2223.61 1131.13C2246.72 1135.27 2266.86 1142.97 2284.04 1154.23C2301.81 1164.89 2315.73 1179.7 2325.8 1198.66C2335.87 1217.61 2340.61 1241.9 2340.02 1271.52H2222.73Z" fill="white"/>
<path d="M1789.8 1317.72C1789.8 1305.88 1788.61 1294.32 1786.24 1283.07C1784.47 1271.22 1780.62 1260.56 1774.69 1251.08C1768.77 1241.6 1760.18 1234.2 1748.92 1228.87C1737.67 1222.94 1722.86 1219.98 1704.5 1219.98C1686.72 1219.98 1671.03 1222.65 1657.4 1227.98C1643.78 1233.31 1631.93 1240.42 1621.86 1249.3C1611.79 1258.19 1603.2 1268.56 1596.09 1280.4C1589.58 1292.25 1583.95 1304.69 1579.21 1317.72H1789.8ZM1565.88 1397.69C1565.29 1400.66 1564.99 1403.32 1564.99 1405.69C1564.99 1408.06 1564.99 1410.43 1564.99 1412.8V1424.35C1564.99 1451.01 1573.29 1472.63 1589.87 1489.22C1606.46 1505.8 1631.93 1514.1 1666.29 1514.1C1678.73 1514.1 1689.69 1512.32 1699.16 1508.76C1709.24 1504.62 1717.82 1499.58 1724.93 1493.66C1732.63 1487.73 1739.15 1480.92 1744.48 1473.22C1750.41 1465.52 1755.74 1458.12 1760.48 1451.01H1886.65C1876.58 1477.07 1864.73 1499.88 1851.11 1519.43C1837.48 1538.98 1821.19 1555.56 1802.24 1569.19C1783.28 1582.22 1761.07 1591.99 1735.6 1598.51C1710.72 1605.03 1681.69 1608.28 1648.52 1608.28C1617.71 1608.28 1589.58 1604.14 1564.1 1595.84C1539.22 1587.55 1517.9 1575.11 1500.13 1558.52C1482.36 1541.34 1468.43 1520.32 1458.36 1495.44C1448.89 1470.56 1444.15 1441.53 1444.15 1408.36C1444.15 1371.63 1450.07 1336.38 1461.92 1302.62C1473.77 1268.26 1490.35 1238.05 1511.68 1211.98C1533.6 1185.33 1560.25 1164.3 1591.65 1148.9C1623.04 1132.9 1658.29 1124.91 1697.39 1124.91C1729.38 1124.91 1758.4 1129.05 1784.47 1137.35C1811.12 1145.64 1833.63 1158.37 1852 1175.55C1870.95 1192.14 1885.47 1213.17 1895.54 1238.64C1906.2 1263.52 1911.53 1292.55 1911.53 1325.72C1911.53 1348.23 1909.16 1372.22 1904.42 1397.69H1565.88Z" fill="white"/>
<path d="M1200.39 1219.98C1176.7 1219.98 1155.97 1226.2 1138.2 1238.64C1121.02 1251.08 1106.8 1266.78 1095.54 1285.73C1084.29 1304.69 1076 1325.42 1070.66 1347.93C1065.33 1370.44 1062.67 1391.77 1062.67 1411.91C1062.67 1425.53 1064.44 1438.57 1068 1451.01C1072.15 1463.45 1077.77 1474.4 1084.88 1483.88C1092.58 1492.77 1102.06 1500.17 1113.32 1506.1C1124.57 1511.43 1137.6 1514.09 1152.41 1514.09C1176.11 1514.09 1196.54 1507.87 1213.72 1495.43C1230.9 1482.4 1245.12 1466.11 1256.37 1446.56C1268.22 1427.01 1276.81 1405.98 1282.14 1383.47C1288.07 1360.37 1291.03 1339.05 1291.03 1319.5C1291.03 1289.29 1283.62 1265.3 1268.81 1247.52C1254 1229.16 1231.2 1219.98 1200.39 1219.98ZM1251.04 1539.86L1249.27 1538.08C1235.05 1562.96 1215.5 1581.03 1190.62 1592.29C1166.33 1602.95 1139.97 1608.28 1111.54 1608.28C1055.86 1608.28 1012.61 1592.29 981.808 1560.3C951.597 1527.72 936.492 1483.59 936.492 1427.9C936.492 1389.99 941.527 1352.97 951.597 1316.83C961.668 1280.7 977.069 1248.41 997.803 1219.98C1018.54 1191.54 1044.6 1168.74 1076 1151.56C1107.39 1133.79 1144.42 1124.9 1187.07 1124.9C1213.72 1124.9 1239.2 1130.83 1263.48 1142.67C1288.36 1154.52 1305.84 1173.18 1315.91 1198.65H1317.68L1368.33 962.296H1494.51L1360.34 1596.73H1238.6L1251.04 1539.86Z" fill="white"/>
<path fill-rule="evenodd" clip-rule="evenodd" d="M3106.72 342.051L3070.97 508.902H3069.19C3059.12 483.43 3041.65 464.77 3016.77 452.923C2992.48 441.075 2967.01 435.152 2940.35 435.152C2897.7 435.152 2860.67 444.037 2829.28 461.809C2797.88 478.987 2771.82 501.794 2751.09 530.228C2730.35 558.662 2714.95 590.946 2704.88 627.081C2694.81 663.216 2689.77 700.239 2689.77 738.151C2689.77 793.835 2704.88 837.967 2735.09 870.547C2765.89 902.535 2809.14 918.529 2864.82 918.529C2893.26 918.529 2919.62 913.198 2943.9 902.535C2968.78 891.28 2988.33 873.213 3002.55 848.333L3004.33 850.11L2991.89 906.978H3113.62L3188.99 550.599C3197.74 433.567 3138.18 353.094 3106.72 342.051ZM2891.48 548.888C2909.25 536.448 2929.98 530.228 2953.68 530.228C2984.48 530.228 3007.29 539.41 3022.1 557.773C3036.91 575.545 3044.31 599.536 3044.31 629.747C3044.31 649.295 3041.35 670.621 3035.43 693.723C3030.09 716.234 3021.5 737.263 3009.66 756.811C2998.4 776.36 2984.18 792.65 2967.01 805.682C2949.83 818.122 2929.39 824.342 2905.7 824.342C2890.89 824.342 2877.85 821.676 2866.6 816.345C2855.34 810.421 2845.87 803.016 2838.16 794.131C2831.06 784.653 2825.43 773.694 2821.28 761.254C2817.73 748.814 2815.95 735.782 2815.95 722.157C2815.95 702.017 2818.62 680.691 2823.95 658.181C2829.28 635.671 2837.57 614.937 2848.83 595.981C2860.08 577.025 2874.3 561.328 2891.48 548.888Z" fill="white"/>
<path d="M3211.91 460.873L3259.84 267.228H3121.36L3280.37 0L3225.07 203.47H3361.01L3211.91 460.873Z" fill="#DFFFBF"/>
</svg>
